<?xml version="1.0" standalone="no"?>
<!DOCTYPE svg PUBLIC "-//W3C//DTD SVG 20010904//EN"
 "http://www.w3.org/TR/2001/REC-SVG-20010904/DTD/svg10.dtd">
<svg version="1.0" xmlns="http://www.w3.org/2000/svg"
 width="512.000000pt" height="512.000000pt" viewBox="0 0 512.000000 512.000000"
 preserveAspectRatio="xMidYMid meet">
<metadata>
Created by potrace 1.16, written by Peter Selinger 2001-2019
</metadata>
<g transform="translate(0.000000,512.000000) scale(0.100000,-0.100000)"
fill="#000000" stroke="none">
<path d="M1205 5096 c-26 -26 -28 -32 -44 -151 -15 -109 -70 -220 -147 -298
-96 -97 -191 -142 -332 -158 -98 -11 -116 -19 -137 -59 -45 -87 12 -170 117
-170 24 0 70 -7 101 -15 224 -58 384 -250 404 -483 5 -65 10 -81 33 -104 50
-50 111 -49 161 2 22 22 29 38 29 67 0 71 21 157 57 233 81 169 278 300 451
300 105 0 162 83 117 170 -21 40 -39 48 -136 59 -46 5 -104 17 -128 25 -186
67 -326 238 -352 431 -16 119 -18 125 -44 151 -19 19 -35 24 -75 24 -40 0 -56
-5 -75 -24z"/>
<path d="M4220 4454 c-154 -33 -332 -106 -535 -219 -189 -105 -511 -324 -725
-491 l-56 -44 -84 15 c-238 42 -495 24 -727 -51 -114 -36 -305 -133 -407 -205
-115 -82 -263 -230 -345 -345 -72 -102 -169 -293 -205 -407 -75 -232 -93 -489
-51 -727 l15 -84 -44 -56 c-167 -214 -386 -536 -491 -725 -220 -394 -286 -689
-197 -878 39 -84 105 -150 190 -190 64 -31 72 -32 192 -32 147 1 246 24 425
100 1001 427 2729 2089 3381 3252 265 472 305 803 119 988 -103 103 -269 139
-455 99z m130 -445 c0 -39 -59 -197 -114 -307 -245 -488 -733 -1109 -1381
-1757 -628 -629 -1248 -1119 -1725 -1364 -131 -68 -296 -131 -339 -131 -29 0
-27 23 9 130 63 190 242 503 447 783 l50 67 65 -87 c37 -49 100 -122 142 -163
89 -88 63 -93 244 47 648 502 1323 1177 1825 1825 140 181 135 155 47 244 -41
42 -114 105 -163 142 l-87 65 67 50 c280 205 589 382 781 447 106 36 132 38
132 9z"/>
<path d="M4615 2765 c-85 -33 -135 -109 -135 -205 0 -73 23 -125 76 -168 98
-81 244 -60 319 46 27 40 30 51 30 122 0 71 -3 82 -30 122 -57 80 -171 116
-260 83z"/>
<path d="M335 2546 c-135 -60 -167 -256 -59 -358 94 -88 257 -72 330 34 24 34
29 54 32 113 5 101 -29 164 -110 206 -44 23 -147 25 -193 5z"/>
<path d="M3908 2137 c-346 -409 -912 -971 -1310 -1302 -53 -44 -97 -84 -97
-89 -1 -12 212 1 324 20 164 28 356 100 510 192 191 114 394 316 507 507 91
154 164 345 192 510 20 110 33 325 20 324 -5 0 -71 -73 -146 -162z"/>
<path d="M3975 845 c-85 -33 -135 -109 -135 -205 0 -73 23 -125 76 -168 98
-81 244 -60 319 46 27 40 30 51 30 122 0 71 -3 82 -30 122 -57 80 -171 116
-260 83z"/>
</g>
</svg>
