<?xml version="1.0" standalone="no"?>
<!DOCTYPE svg PUBLIC "-//W3C//DTD SVG 20010904//EN"
 "http://www.w3.org/TR/2001/REC-SVG-20010904/DTD/svg10.dtd">
<svg version="1.0" xmlns="http://www.w3.org/2000/svg"
 width="512.000000pt" height="512.000000pt" viewBox="0 0 512.000000 512.000000"
 preserveAspectRatio="xMidYMid meet">
<metadata>
</metadata>
<g transform="translate(0.000000,512.000000) scale(0.100000,-0.100000)"
fill="#FFFFFF" stroke="none">
<path d="M748 4949 c-20 -11 -38 -68 -38 -122 0 -59 -29 -176 -61 -243 -52
-110 -125 -164 -242 -179 -62 -8 -87 -33 -87 -85 0 -51 24 -76 81 -85 69 -11
105 -30 163 -85 87 -82 146 -243 146 -398 0 -112 24 -152 90 -152 68 0 83 28
94 177 7 88 44 229 77 294 48 95 122 149 222 164 62 8 87 33 87 85 0 52 -25
77 -87 85 -167 24 -281 163 -298 364 -11 125 -16 152 -36 172 -21 21 -82 26
-111 8z m74 -496 c14 -21 47 -59 73 -85 l48 -47 -42 -47 c-23 -27 -54 -70 -69
-96 -15 -26 -29 -48 -32 -48 -3 0 -14 17 -25 37 -11 20 -43 61 -71 91 l-52 54
42 38 c22 21 55 61 71 89 17 28 31 51 31 51 1 0 13 -17 26 -37z"/>
<path d="M2265 4196 c-521 -86 -953 -404 -1181 -871 -112 -230 -152 -389 -161
-632 l-6 -163 -106 -94 c-145 -129 -401 -391 -493 -506 -431 -539 -421 -907
30 -1033 68 -19 102 -21 297 -21 194 1 237 4 368 27 208 38 460 104 685 180
l194 65 56 -23 c70 -28 222 -69 322 -87 126 -21 404 -16 538 10 647 129 1146
624 1272 1262 l11 56 146 119 c173 141 452 410 565 545 152 182 266 376 302
516 24 91 21 220 -6 291 -42 113 -148 193 -318 240 -102 28 -489 25 -665 -5
-160 -28 -344 -71 -523 -122 l-136 -39 -65 43 c-150 99 -333 176 -531 223 -90
21 -135 25 -310 29 -139 2 -231 -1 -285 -10z m535 -181 c261 -53 498 -178 693
-365 169 -161 291 -350 367 -565 l31 -89 -23 -18 c-72 -56 -386 -270 -529
-360 -548 -348 -1212 -696 -1732 -906 l-142 -58 -31 35 c-145 164 -262 399
-316 631 -28 122 -35 383 -14 510 51 314 180 566 405 791 252 253 560 396 901
417 130 9 279 0 390 -23z m1950 -105 c52 -14 117 -45 144 -69 47 -41 68 -120
55 -204 -52 -320 -541 -846 -1244 -1336 -885 -617 -1942 -1092 -2740 -1232
-150 -26 -414 -36 -509 -20 -145 25 -251 90 -277 168 -57 173 178 547 595 949
88 85 162 154 166 154 3 0 13 -37 24 -82 10 -45 20 -86 22 -93 3 -6 -33 -42
-78 -80 -294 -245 -457 -438 -482 -574 -15 -82 40 -168 126 -197 74 -24 256
-15 413 21 940 215 2777 1227 3450 1900 212 211 282 354 226 463 -34 67 -84
96 -186 107 -117 13 -410 -42 -635 -119 -59 -21 -76 -24 -85 -14 -7 7 -35 39
-64 70 l-53 57 74 22 c108 32 355 86 482 105 213 32 468 34 576 4z m-286 -300
c23 -8 25 -12 15 -37 -28 -75 -202 -265 -373 -408 l-69 -57 -32 84 c-34 87
-86 193 -129 264 l-25 41 102 31 c261 79 443 108 511 82z m-610 -1472 c-141
-397 -473 -724 -877 -867 -249 -87 -508 -102 -775 -44 l-73 16 153 66 c200 85
641 306 843 422 212 121 460 276 620 388 72 49 131 90 132 90 2 1 -9 -32 -23
-71z m-2665 -413 c19 -27 49 -69 68 -92 l34 -43 -28 -11 c-77 -29 -300 -91
-391 -109 -124 -24 -260 -27 -268 -6 -18 47 159 253 375 435 l73 62 52 -93
c28 -51 67 -115 85 -143z"/>
<path d="M1832 3657 c-14 -15 -22 -36 -22 -58 0 -57 -27 -164 -54 -217 -32
-62 -83 -100 -150 -108 -62 -9 -86 -32 -86 -84 0 -49 24 -76 77 -86 124 -22
193 -132 209 -331 8 -108 25 -133 90 -133 61 0 79 27 87 127 16 204 84 319
199 337 57 9 88 39 88 86 0 46 -30 75 -87 85 -115 18 -190 122 -200 276 -5 69
-10 87 -29 106 -32 32 -92 32 -122 0z"/>
<path d="M3508 3101 c-28 -25 -33 -36 -33 -76 0 -40 5 -51 33 -76 24 -22 42
-29 72 -29 30 0 48 7 72 29 28 25 33 36 33 76 0 40 -5 51 -33 76 -24 22 -42
29 -72 29 -30 0 -48 -7 -72 -29z"/>
<path d="M2813 2934 c-62 -37 -93 -95 -93 -174 0 -123 77 -200 200 -200 123 0
200 77 200 200 0 123 -77 200 -201 200 -51 0 -73 -5 -106 -26z"/>
<path d="M2245 881 c-90 -37 -80 -174 14 -202 119 -35 193 127 87 192 -33 20
-68 23 -101 10z"/>
<path d="M1364 781 c-59 -27 -109 -75 -138 -133 -21 -42 -26 -66 -26 -127 1
-120 51 -205 152 -255 74 -37 182 -37 256 0 101 50 151 135 152 255 0 61 -5
85 -26 127 -29 58 -79 106 -138 133 -56 25 -176 25 -232 0z m169 -126 c44 -22
67 -61 67 -116 0 -100 -108 -155 -190 -99 -71 47 -71 160 0 207 47 30 76 32
123 8z"/>
</g>
</svg>
